<svg xmlns="http://www.w3.org/2000/svg" xmlns:xlink="http://www.w3.org/1999/xlink" version="1.1" x="0px" y="0px" viewBox="0 0 100 125" enable-background="new 0 0 100 100" xml:space="preserve"><path fill-rule="evenodd" clip-rule="evenodd" d="M74.074,70.026c0.155,1.673-1.076,3.156-2.749,3.311l-1.212,0.112  c-1.674,0.155-3.156-1.076-3.311-2.749l-0.112-1.206c-0.004-0.041,0.003-0.08,0.001-0.121c-1.628-14.1-14.109-24.414-28.285-23.314  l5.708,5.987c1.171,1.182,1.163,3.091-0.02,4.263l-0.853,0.845c-1.182,1.172-3.09,1.163-4.262-0.02L26.901,44.465l-0.115-0.116  c-0.586-0.591-0.877-1.365-0.873-2.136c0.003-0.773,0.3-1.544,0.892-2.131l0.118-0.117l12.192-12.554  c1.182-1.172,3.091-1.163,4.262,0.019l0.845,0.852c1.172,1.183,1.163,3.091-0.019,4.263l-5.988,6.166  c18.062-1.243,33.916,12.062,35.766,30.13c-0.005,0.002-0.011,0.004-0.017,0.006L74.074,70.026z"/><text x="0" y="115" fill="#000000" font-size="5px" font-weight="bold" font-family="'Helvetica Neue', Helvetica, Arial-Unicode, Arial, Sans-serif">Created by Alex Bickov</text><text x="0" y="120" fill="#000000" font-size="5px" font-weight="bold" font-family="'Helvetica Neue', Helvetica, Arial-Unicode, Arial, Sans-serif">from the Noun Project</text></svg>