<svg xmlns="http://www.w3.org/2000/svg" xmlns:xlink="http://www.w3.org/1999/xlink" version="1.1" x="0px" y="0px" viewBox="0 0 100 125" style="enable-background:new 0 0 100 100;" xml:space="preserve"><g><path d="M75.7,36.2L69,31.9c-0.2-0.1-0.4-0.2-0.7-0.3c-0.2-1.4-0.9-2.8-1.9-3.8L49,11.1c-2.1-2-5.3-2-7.3,0L24.2,27.8   c-1.3,1.2-2,2.9-2,4.7v41.1c0,3.6,2.9,6.5,6.5,6.5h1.9c0,0.1,0,0.2,0,0.2v3.5c0,3.6,2.9,6.5,6.5,6.5h34.2c3.6,0,6.5-2.9,6.5-6.5   V40.3c0-1.4-0.6-2.8-1.6-3.8C76,36.4,75.9,36.3,75.7,36.2z M45,28.6c4.1,0,7.4,3.3,7.4,7.4s-3.3,7.4-7.4,7.4s-7.4-3.3-7.4-7.4   S40.9,28.6,45,28.6z M72.8,83.8c0,0.8-0.7,1.5-1.5,1.5H37.1c-0.8,0-1.5-0.7-1.5-1.5v-3.5c0-0.1,0-0.2,0-0.2H62   c3.6,0,6.5-2.9,6.5-6.5V37.4l4.3,2.8c0,0,0,0.1,0,0.1V83.8z"/></g><text x="0" y="115" fill="#000000" font-size="5px" font-weight="bold" font-family="'Helvetica Neue', Helvetica, Arial-Unicode, Arial, Sans-serif">Created by Gagana</text><text x="0" y="120" fill="#000000" font-size="5px" font-weight="bold" font-family="'Helvetica Neue', Helvetica, Arial-Unicode, Arial, Sans-serif">from the Noun Project</text></svg>