<svg xmlns="http://www.w3.org/2000/svg" viewBox="0 0 721.02 899.0999999999999" x="0px" y="0px"><defs><style>.cls-1{stroke-width:0px;}</style></defs><path class="cls-1" d="M492.42,395.97c-.13,1.08-.28,2.01-.34,2.95-.55,8.21-.97,16.44-1.63,24.64-1.49,18.35-4.2,36.51-9.67,54.15-6.99,22.54-20.44,40.24-40.17,53.25-14.44,9.53-30.2,15.91-46.91,20.07-15.17,3.78-30.61,5.68-46.22,6.36-12.56.55-25.11.47-37.62-.61-30.29-2.62-59.4-9.66-86.43-24.02-10.61-5.64-20.63-12.23-29.58-20.31-6.02-5.44-11.34-11.49-15.43-18.55-4.37-7.55-6.85-15.64-6.83-24.41.03-9.22,2.84-17.6,7.84-25.29,5.43-8.35,12.43-15.2,20.33-21.17,11.32-8.56,23.55-15.63,36.15-22.11,30.15-15.53,61.75-27.32,94.36-36.44,26.4-7.38,53.17-13.15,80.26-17.4,7.73-1.21,15.5-2.23,23.24-3.35.63-.09,1.24-.24,2.09-.41-.13-1.48-.26-2.89-.39-4.31-2.33-24.41-8.18-47.98-16.91-70.86-2.4-6.28-5.25-12.35-8.6-18.18-.4-.69-.83-1.37-1.21-2.07-5.23-9.48-13.64-14.06-24.03-15.43-10.09-1.34-20.12-.52-30.02,1.6-19.02,4.06-37.07,10.82-54.23,19.96-7.92,4.22-15.32,9.26-22.21,15.01-12.09,10.09-19.68,22.94-23.19,38.24-1.86,8.11-2.98,16.34-3.44,24.65-.1,1.81-.03,3.71.42,5.45,3.51,13.76-2.94,27.59-15.64,33.31-12.66,5.7-27.4,1.4-35.35-10.3-3.89-5.73-5.58-12.17-6-18.97-.51-8.32,0-16.62,1-24.89,1.16-9.61,2.75-19.14,5.41-28.45,7.64-26.77,22.49-48.68,44.44-65.81,13.69-10.68,28.52-19.38,44.39-26.37,15.68-6.9,31.79-12.49,48.48-16.4,15.37-3.6,30.92-5.18,46.64-3.98,19.05,1.46,36.59,7.3,51.7,19.42,9.12,7.31,16.03,16.45,21.85,26.49,7.52,12.99,13.11,26.82,17.8,41.04,6.21,18.86,10.77,38.11,13.63,57.76.9,6.16,1.43,12.37,2.16,18.81.67,0,1.36,0,2.06,0,8.07,0,16.15-.09,24.22,0,12.73.15,25.36,1.46,37.92,3.53,10.97,1.81,21.81,4.16,32.29,7.96,7.44,2.7,14.72,5.78,21.63,9.67,17,9.56,29.39,23.36,37.74,40.92,6.12,12.87,9.95,26.43,12.42,40.41,2.59,14.69,3.68,29.5,3.23,44.4-.88,28.92-5.89,57-17.34,83.75-12.56,29.35-32.19,52.74-58.92,70.2-12.77,8.34-26.44,14.86-40.53,20.58-23.66,9.59-48.02,16.93-72.91,22.55-17.69,3.99-35.51,7.34-53.46,9.92-14.95,2.15-29.95,3.89-45.02,5.02-22.58,1.7-45.19,2.21-67.82,1.71-26.83-.6-53.43-3.35-79.59-9.5-21.17-4.98-41.5-12.25-60.35-23.27-32.08-18.75-56.61-44.76-74.38-77.29-13.16-24.08-22.27-49.66-28.24-76.39-3.31-14.83-5.63-29.83-6.81-44.98-.61-7.88-1.21-15.78-1.4-23.69-.3-12.46-.58-24.94-.27-37.4.32-12.93,1.19-25.86,2.14-38.77.76-10.35,1.84-20.69,3.07-31,1.45-12.13,3.08-24.25,4.89-36.33,2.54-16.99,5.73-33.86,9.39-50.64,5.55-25.48,12.42-50.57,22.53-74.67,11.31-26.97,27.21-50.81,48.69-70.78,15.54-14.45,32.79-26.55,51.5-36.55,27.88-14.91,57.24-26.01,87.81-34,18.1-4.73,36.43-8.36,54.96-10.93,20.7-2.87,41.5-4.42,62.4-3.88,22.25.57,44.38,2.51,66,8.11,16.97,4.39,33.37,10.3,48.88,18.68,20.77,11.22,36.73,27.17,48.55,47.48,8.92,15.33,14.95,31.76,19.06,48.95,3.33,13.92,5.7,28.01,7.8,42.16,2.3,15.5,3.89,31.07,5.07,46.69.47,6.22.72,12.45,1.18,18.66.68,9.24,1.4,18.48,2.23,27.71.53,5.81.41,11.49-1.96,16.95-5.01,11.51-16.38,17.97-28.03,17.06-12.6-.98-22.95-9.88-25.48-22.15-1.06-5.14-1.52-10.44-1.91-15.69-.97-12.99-1.66-26-2.62-38.99-1.81-24.48-4.96-48.79-9.99-72.83-2.66-12.71-6.25-25.11-12.48-36.61-4.61-8.5-10.08-16.31-17.69-22.45-5.26-4.25-11.13-7.53-17.22-10.34-14.44-6.67-29.54-11.17-45.29-13.52-15.77-2.35-31.62-3.47-47.55-3.22-11.11.17-22.19.94-33.24,2.19-24.27,2.75-48.12,7.54-71.51,14.53-22.56,6.74-44.32,15.49-64.93,26.93-15.52,8.62-29.78,18.96-42.17,31.77-11.23,11.61-19.99,24.88-26.85,39.46-7.51,15.97-12.67,32.76-17.2,49.75-4.59,17.22-8.18,34.67-11.1,52.24-2.43,14.57-4.62,29.19-6.55,43.83-1.5,11.32-2.63,22.7-3.57,34.08-.9,10.99-1.57,22-1.93,33.02-.37,11.1-.54,22.22-.27,33.33.45,18.71,2.01,37.34,5.61,55.74,5.18,26.54,13.76,51.85,27.66,75.18,13.14,22.07,30.88,39.41,53.5,51.66,14.31,7.75,29.68,12.57,45.5,16,14.78,3.2,29.76,5.14,44.84,6.15,17.56,1.17,35.14,1.39,52.73.67,10.14-.42,20.29-.84,30.41-1.57,8.36-.6,16.72-1.45,25.04-2.56,11.32-1.51,22.63-3.14,33.88-5.11,30.34-5.31,60.16-12.65,88.91-23.91,8.78-3.44,17.47-7.09,25.75-11.63,15.59-8.54,28.99-19.52,38.7-34.66,5.78-9.02,10.01-18.72,13.24-28.89,3.99-12.54,6.37-25.41,7.28-38.52.45-6.45.9-12.94.74-19.39-.38-15.24-2.27-30.27-7.52-44.7-.76-2.1-1.71-4.13-2.61-6.18-3.86-8.8-10.51-14.64-19.21-18.48-8.98-3.96-18.34-6.46-27.96-8.22-18.04-3.29-36.23-3.67-54.47-3.22-1.02.03-2.04.15-3.2.24ZM435.23,400.99c-.95,0-1.67-.09-2.35.01-6.71,1.03-13.42,2.04-20.11,3.17-24.5,4.12-48.74,9.46-72.59,16.44-29.65,8.67-58.37,19.68-85.54,34.54-6.81,3.72-13.41,7.76-19.66,12.36-1.08.79-2.1,1.67-3.32,2.64,1.13.97,2.05,1.83,3.05,2.6,6.67,5.14,13.8,9.53,21.47,13.01,20.34,9.24,41.83,13.63,64.01,14.87,10.94.61,21.88.51,32.81-.39,10.53-.87,20.94-2.45,31.11-5.35,10.21-2.91,19.85-7.04,28.37-13.53,4.71-3.59,8.71-7.79,11.15-13.24,1.34-2.98,2.58-6.03,3.53-9.15,2.28-7.5,3.77-15.19,4.81-22.95.91-6.72,1.61-13.48,2.25-20.23.46-4.84.67-9.71,1.01-14.8Z"/><text x="0" y="734.28" fill="#000000" font-size="5px" font-weight="bold" font-family="'Helvetica Neue', Helvetica, Arial-Unicode, Arial, Sans-serif">Created by Bruno Bosse</text><text x="0" y="739.28" fill="#000000" font-size="5px" font-weight="bold" font-family="'Helvetica Neue', Helvetica, Arial-Unicode, Arial, Sans-serif">from the Noun Project</text></svg>